<svg width="48" height="48" viewBox="0 0 48 48" fill="none" xmlns="http://www.w3.org/2000/svg">
<path d="M24.0435 0.179962C10.8149 0.179962 0.0878906 11.0879 0.0878906 24.5445C0.0878906 35.3096 6.95189 44.4426 16.4702 47.6643C17.6674 47.8899 18.1069 47.1358 18.1069 46.4923C18.1069 45.9113 18.0847 43.9919 18.0744 41.956C11.4099 43.4299 10.0037 39.0813 10.0037 39.0813C8.91394 36.265 7.34382 35.5162 7.34382 35.5162C5.17034 34.0039 7.50766 34.035 7.50766 34.035C9.91321 34.2065 11.1799 36.5458 11.1799 36.5458C13.3165 40.2707 16.784 39.1938 18.151 38.5713C18.366 36.9969 18.9868 35.9213 19.6719 35.3132C14.351 34.6971 8.75764 32.6079 8.75764 23.272C8.75764 20.6119 9.69344 18.4383 11.2259 16.7321C10.9771 16.118 10.1572 13.6402 11.4579 10.2841C11.4579 10.2841 13.4696 9.62931 18.0474 12.7816C19.9583 12.2418 22.0076 11.9711 24.0435 11.9618C26.0793 11.9711 28.1302 12.2418 30.0447 12.7816C34.6169 9.62931 36.6258 10.2841 36.6258 10.2841C37.9297 13.6402 37.1094 16.118 36.8606 16.7321C38.3966 18.4383 39.3261 20.6119 39.3261 23.272C39.3261 32.6301 33.722 34.6907 28.3877 35.2938C29.2469 36.05 30.0125 37.5327 30.0125 39.8059C30.0125 43.0656 29.9848 45.6893 29.9848 46.4923C29.9848 47.1406 30.416 47.9004 31.6302 47.6611C41.1434 44.4358 47.9986 35.306 47.9986 24.5445C47.9986 11.0879 37.2732 0.179962 24.0435 0.179962Z" />
<path d="M9.16109 35.1623C9.10833 35.2838 8.92109 35.3197 8.75051 35.2365C8.57676 35.1571 8.47918 34.992 8.53551 34.8706C8.58708 34.7459 8.77471 34.7116 8.94807 34.7943C9.12222 34.8742 9.22139 35.0409 9.16109 35.1623Z" />
<path d="M10.1313 36.263C10.017 36.3707 9.7937 36.3207 9.64217 36.1504C9.48547 35.9806 9.45612 35.7534 9.57195 35.6441C9.68977 35.5363 9.90637 35.5868 10.0635 35.7566C10.2202 35.9285 10.2507 36.1541 10.1313 36.263Z" />
<path d="M11.076 37.6663C10.9292 37.77 10.6892 37.6727 10.5408 37.4561C10.3941 37.2394 10.3941 36.9796 10.544 36.8755C10.6928 36.7714 10.9292 36.865 11.0796 37.08C11.2259 37.2999 11.2259 37.5602 11.076 37.6663Z" />
<path d="M12.3698 39.0219C12.2385 39.1692 11.9588 39.1297 11.7541 38.9287C11.5446 38.7322 11.4863 38.4534 11.618 38.3062C11.7509 38.1585 12.0322 38.2001 12.2385 38.3994C12.4463 38.5955 12.5098 38.8763 12.3698 39.0219Z" />
<path d="M14.1549 39.8091C14.097 40 13.8276 40.0867 13.5563 40.0056C13.2853 39.9221 13.108 39.6986 13.1628 39.5057C13.2191 39.3136 13.4896 39.2233 13.763 39.31C14.0335 39.3931 14.2112 39.615 14.1549 39.8091Z" />
<path d="M16.1154 39.9552C16.1221 40.1561 15.892 40.3227 15.6072 40.326C15.3208 40.3328 15.0891 40.1702 15.0859 39.9725C15.0859 39.7696 15.3109 39.6046 15.5973 39.5997C15.8821 39.5941 16.1154 39.7555 16.1154 39.9552Z" />
<path d="M17.9398 39.6392C17.9739 39.8353 17.776 40.0367 17.4931 40.0899C17.2151 40.142 16.9576 40.0209 16.9223 39.8265C16.8878 39.6255 17.0893 39.4242 17.367 39.3721C17.6502 39.3221 17.9037 39.4399 17.9398 39.6392Z" />
</svg>
